  0
SECTION
  2
BLOCKS
  0
ENDSEC
  0
SECTION
  2
ENTITIES
  0
LINE
  8
0
 10
-94.4793
 20
-66.3225
 11
-92.4917
 21
-76.3028
  0
LINE
  8
0
 10
-92.4917
 20
-76.3028
 11
-91.9079
 21
-79.2345
  0
LINE
  8
0
 10
-91.9079
 20
-79.2345
 11
-91.8906
 21
-79.2491
  0
LINE
  8
0
 10
-91.8906
 20
-79.2491
 11
-91.8317
 21
-79.299
  0
LINE
  8
0
 10
-91.8317
 20
-79.299
 11
-88.8537
 21
-81.8244
  0
LINE
  8
0
 10
-88.8537
 20
-81.8244
 11
-78.68
 21
-90.4513
  0
LINE
  8
0
 10
-78.68
 20
-90.4513
 11
-78.6585
 21
-90.4695
  0
LINE
  8
0
 10
-78.6585
 20
-90.4695
 11
-71.3848
 21
-93.0882
  0
LINE
  8
0
 10
-71.3848
 20
-93.0882
 11
-71.1415
 21
-93.1758
  0
LINE
  8
0
 10
-71.1415
 20
-93.1758
 11
-70.8502
 21
-93.4659
  0
LINE
  8
0
 10
-70.8502
 20
-93.4659
 11
-59.2832
 21
-104.983
  0
LINE
  8
0
 10
-59.2832
 20
-104.983
 11
-59.235
 21
-105.031
  0
LINE
  8
0
 10
-59.235
 20
-105.031
 11
-59.2143
 21
-105.052
  0
LINE
  8
0
 10
-59.2143
 20
-105.052
 11
-55.6623
 21
-105.076
  0
LINE
  8
0
 10
-55.6623
 20
-105.076
 11
-47.3903
 21
-105.131
  0
LINE
  8
0
 10
-47.3903
 20
-105.131
 11
-46.4219
 21
-104.654
  0
LINE
  8
0
 10
-46.4219
 20
-104.654
 11
-45.5328
 21
-104.216
  0
LINE
  8
0
 10
-45.5328
 20
-104.216
 11
-45.5092
 21
-104.184
  0
LINE
  8
0
 10
-45.5092
 20
-104.184
 11
-45.5092
 21
-104.184
  0
LINE
  8
0
 10
-45.5092
 20
-104.184
 11
-42.4981
 21
-100.039
  0
LINE
  8
0
 10
-42.4981
 20
-100.039
 11
-36.9873
 21
-92.4542
  0
LINE
  8
0
 10
-36.9873
 20
-92.4542
 11
-36.9873
 21
-92.4542
  0
LINE
  8
0
 10
-36.9873
 20
-92.4542
 11
-36.9553
 21
-92.4101
  0
LINE
  8
0
 10
-36.9553
 20
-92.4101
 11
-36.9553
 21
-92.4101
  0
LINE
  8
0
 10
-36.9553
 20
-92.4101
 11
-37.7586
 21
-89.248
  0
LINE
  8
0
 10
-37.7586
 20
-89.248
 11
-38.1913
 21
-87.5449
  0
LINE
  8
0
 10
-38.1913
 20
-87.5449
 11
-38.1913
 21
-87.5449
  0
LINE
  8
0
 10
-38.1913
 20
-87.5449
 11
-35.6613
 21
-84.735
  0
LINE
  8
0
 10
-35.6613
 20
-84.735
 11
-28.9484
 21
-77.2796
  0
LINE
  8
0
 10
-28.9484
 20
-77.2796
 11
-22.4976
 21
-72.8798
  0
LINE
  8
0
 10
-22.4976
 20
-72.8798
 11
-22.3076
 21
-73.118
  0
LINE
  8
0
 10
-22.3076
 20
-73.118
 11
-20.6337
 21
-73.9241
  0
LINE
  8
0
 10
-20.6337
 20
-73.9241
 11
-20.6023
 21
-73.9393
  0
LINE
  8
0
 10
-20.6023
 20
-73.9393
 11
-18.7095
 21
-73.9393
  0
LINE
  8
0
 10
-18.7095
 20
-73.9393
 11
-18.6781
 21
-73.9241
  0
LINE
  8
0
 10
-18.6781
 20
-73.9241
 11
-17.0042
 21
-73.118
  0
LINE
  8
0
 10
-17.0042
 20
-73.118
 11
-15.8458
 21
-71.6654
  0
LINE
  8
0
 10
-15.8458
 20
-71.6654
 11
-15.8241
 21
-71.6382
  0
LINE
  8
0
 10
-15.8241
 20
-71.6382
 11
-15.8163
 21
-71.6042
  0
LINE
  8
0
 10
-15.8163
 20
-71.6042
 11
-15.4029
 21
-69.7929
  0
LINE
  8
0
 10
-15.4029
 20
-69.7929
 11
-15.7153
 21
-68.4242
  0
LINE
  8
0
 10
-15.7153
 20
-68.4242
 11
-13.4657
 21
-67.0366
  0
LINE
  8
0
 10
-13.4657
 20
-67.0366
 11
-8.31742
 21
-67.0366
  0
LINE
  8
0
 10
-8.31742
 20
-67.0366
 11
-8.27956
 21
-67.0366
  0
LINE
  8
0
 10
-8.27956
 20
-67.0366
 11
0.868426
 21
-67.0366
  0
LINE
  8
0
 10
0.868426
 20
-67.0366
 11
1.65949
 21
-66.4404
  0
LINE
  8
0
 10
1.65949
 20
-66.4404
 11
3.19037
 21
-65.2866
  0
LINE
  8
0
 10
3.19037
 20
-65.2866
 11
3.07678
 21
-59.7835
  0
LINE
  8
0
 10
3.07678
 20
-59.7835
 11
3.00654
 21
-56.3806
  0
LINE
  8
0
 10
3.00654
 20
-56.3806
 11
5.19313
 21
-56.3806
  0
LINE
  8
0
 10
5.19313
 20
-56.3806
 11
5.34082
 21
-56.3806
  0
LINE
  8
0
 10
5.34082
 20
-56.3806
 11
5.75918
 21
-56.3806
  0
LINE
  8
0
 10
5.75918
 20
-56.3806
 11
5.84047
 21
-56.3497
  0
LINE
  8
0
 10
5.84047
 20
-56.3497
 11
8.14972
 21
-55.4747
  0
LINE
  8
0
 10
8.14972
 20
-55.4747
 11
9.76658
 21
-52.4948
  0
LINE
  8
0
 10
9.76658
 20
-52.4948
 11
14.4252
 21
-45.2029
  0
LINE
  8
0
 10
14.4252
 20
-45.2029
 11
14.9701
 21
-44.35
  0
LINE
  8
0
 10
14.9701
 20
-44.35
 11
14.962
 21
-44.2899
  0
LINE
  8
0
 10
14.962
 20
-44.2899
 11
14.9585
 21
-44.2639
  0
LINE
  8
0
 10
14.9585
 20
-44.2639
 11
13.8042
 21
-35.6989
  0
LINE
  8
0
 10
13.8042
 20
-35.6989
 11
12.6165
 21
-26.8856
  0
LINE
  8
0
 10
12.6165
 20
-26.8856
 11
12.4032
 21
-23.7356
  0
LINE
  8
0
 10
12.4032
 20
-23.7356
 11
12.1909
 21
-20.6
  0
LINE
  8
0
 10
12.1909
 20
-20.6
 11
12.1909
 21
-3.4
  0
LINE
  8
0
 10
12.1909
 20
-3.4
 11
12.4032
 21
-0.264441
  0
LINE
  8
0
 10
12.4032
 20
-0.264441
 11
12.6165
 21
2.88563
  0
LINE
  8
0
 10
12.6165
 20
2.88563
 11
13.8042
 21
11.6989
  0
LINE
  8
0
 10
13.8042
 20
11.6989
 11
14.9585
 21
20.2639
  0
LINE
  8
0
 10
14.9585
 20
20.2639
 11
14.962
 21
20.2899
  0
LINE
  8
0
 10
14.962
 20
20.2899
 11
14.9701
 21
20.35
  0
LINE
  8
0
 10
14.9701
 20
20.35
 11
14.4252
 21
21.2029
  0
LINE
  8
0
 10
14.4252
 20
21.2029
 11
9.76658
 21
28.4948
  0
LINE
  8
0
 10
9.76658
 20
28.4948
 11
8.14972
 21
31.4747
  0
LINE
  8
0
 10
8.14972
 20
31.4747
 11
5.84047
 21
32.3497
  0
LINE
  8
0
 10
5.84047
 20
32.3497
 11
5.75918
 21
32.3806
  0
LINE
  8
0
 10
5.75918
 20
32.3806
 11
5.34082
 21
32.3806
  0
LINE
  8
0
 10
5.34082
 20
32.3806
 11
5.19313
 21
32.3806
  0
LINE
  8
0
 10
5.19313
 20
32.3806
 11
-4.60478
 21
32.3805
  0
LINE
  8
0
 10
-4.60478
 20
32.3805
 11
-8.21
 21
38.6422
  0
LINE
  8
0
 10
-8.21
 20
38.6422
 11
-10.9923
 21
43.4747
  0
LINE
  8
0
 10
-10.9923
 20
43.4747
 11
-12.1759
 21
43.8887
  0
LINE
  8
0
 10
-12.1759
 20
43.8887
 11
-12.1759
 21
43.8887
  0
LINE
  8
0
 10
-12.1759
 20
43.8887
 11
-13.5821
 21
44.3805
  0
LINE
  8
0
 10
-13.5821
 20
44.3805
 11
-16.0993
 21
44.3805
  0
LINE
  8
0
 10
-16.0993
 20
44.3805
 11
-16.1013
 21
44.3895
  0
LINE
  8
0
 10
-16.1013
 20
44.3895
 11
-16.109
 21
44.4234
  0
LINE
  8
0
 10
-16.109
 20
44.4234
 11
-16.1308
 21
44.4507
  0
LINE
  8
0
 10
-16.1308
 20
44.4507
 11
-17.2892
 21
45.9033
  0
LINE
  8
0
 10
-17.2892
 20
45.9033
 11
-18.9631
 21
46.7094
  0
LINE
  8
0
 10
-18.9631
 20
46.7094
 11
-18.9945
 21
46.7245
  0
LINE
  8
0
 10
-18.9945
 20
46.7245
 11
-20.8873
 21
46.7245
  0
LINE
  8
0
 10
-20.8873
 20
46.7245
 11
-20.9187
 21
46.7094
  0
LINE
  8
0
 10
-20.9187
 20
46.7094
 11
-22.5926
 21
45.9033
  0
LINE
  8
0
 10
-22.5926
 20
45.9033
 11
-23.751
 21
44.4507
  0
LINE
  8
0
 10
-23.751
 20
44.4507
 11
-23.7727
 21
44.4234
  0
LINE
  8
0
 10
-23.7727
 20
44.4234
 11
-23.7805
 21
44.3895
  0
LINE
  8
0
 10
-23.7805
 20
44.3895
 11
-23.7825
 21
44.3805
  0
LINE
  8
0
 10
-23.7825
 20
44.3805
 11
-23.9803
 21
44.3805
  0
LINE
  8
0
 10
-23.9803
 20
44.3805
 11
-27.9272
 21
46.2947
  0
LINE
  8
0
 10
-27.9272
 20
46.2947
 11
-29.9559
 21
46.9583
  0
LINE
  8
0
 10
-29.9559
 20
46.9583
 11
-30.6965
 21
47.2005
  0
LINE
  8
0
 10
-30.6965
 20
47.2005
 11
-37.8632
 21
47.2005
  0
LINE
  8
0
 10
-37.8632
 20
47.2005
 11
-37.8858
 21
47.2005
  0
LINE
  8
0
 10
-37.8858
 20
47.2005
 11
-40.6767
 21
47.2005
  0
LINE
  8
0
 10
-40.6767
 20
47.2005
 11
-41.0152
 21
45.6583
  0
LINE
  8
0
 10
-41.0152
 20
45.6583
 11
-41.1008
 21
45.2687
  0
LINE
  8
0
 10
-41.1008
 20
45.2687
 11
-41.1051
 21
45.2491
  0
LINE
  8
0
 10
-41.1051
 20
45.2491
 11
-41.1219
 21
45.1721
  0
LINE
  8
0
 10
-41.1219
 20
45.1721
 11
-41.001
 21
44.6714
  0
LINE
  8
0
 10
-41.001
 20
44.6714
 11
-40.9307
 21
44.3805
  0
LINE
  8
0
 10
-40.9307
 20
44.3805
 11
-47.0804
 21
44.3805
  0
LINE
  8
0
 10
-47.0804
 20
44.3805
 11
-47.0915
 21
44.3805
  0
LINE
  8
0
 10
-47.0915
 20
44.3805
 11
-48.6131
 21
44.3805
  0
LINE
  8
0
 10
-48.6131
 20
44.3805
 11
-50.4415
 21
44.3805
  0
LINE
  8
0
 10
-50.4415
 20
44.3805
 11
-50.4489
 21
44.3805
  0
LINE
  8
0
 10
-50.4489
 20
44.3805
 11
-50.741
 21
44.3805
  0
LINE
  8
0
 10
-50.741
 20
44.3805
 11
-57.0825
 21
44.3805
  0
LINE
  8
0
 10
-57.0825
 20
44.3805
 11
-58.0579
 21
44.3805
  0
LINE
  8
0
 10
-58.0579
 20
44.3805
 11
-58.4755
 21
42.661
  0
LINE
  8
0
 10
-58.4755
 20
42.661
 11
-58.5297
 21
42.4381
  0
LINE
  8
0
 10
-58.5297
 20
42.4381
 11
-58.5505
 21
42.3521
  0
LINE
  8
0
 10
-58.5505
 20
42.3521
 11
-58.153
 21
40.6254
  0
LINE
  8
0
 10
-58.153
 20
40.6254
 11
-67.7599
 21
31.0184
  0
LINE
  8
0
 10
-67.7599
 20
31.0184
 11
-68.293
 21
28.8234
  0
LINE
  8
0
 10
-68.293
 20
28.8234
 11
-68.8059
 21
26.7112
  0
LINE
  8
0
 10
-68.8059
 20
26.7112
 11
-70.6971
 21
26.7112
  0
LINE
  8
0
 10
-70.6971
 20
26.7112
 11
-70.7285
 21
26.6961
  0
LINE
  8
0
 10
-70.7285
 20
26.6961
 11
-72.4024
 21
25.89
  0
LINE
  8
0
 10
-72.4024
 20
25.89
 11
-72.7556
 21
25.4471
  0
LINE
  8
0
 10
-72.7556
 20
25.4471
 11
-73.8315
 21
25.4471
  0
LINE
  8
0
 10
-73.8315
 20
25.4471
 11
-73.8315
 21
23.3194
  0
LINE
  8
0
 10
-73.8315
 20
23.3194
 11
-74.0037
 21
22.5649
  0
LINE
  8
0
 10
-74.0037
 20
22.5649
 11
-73.8315
 21
21.8103
  0
LINE
  8
0
 10
-73.8315
 20
21.8103
 11
-73.8315
 21
-27.4471
  0
LINE
  8
0
 10
-73.8315
 20
-27.4471
 11
-68.8673
 21
-27.4471
  0
LINE
  8
0
 10
-68.8673
 20
-27.4471
 11
-69.8466
 21
-27.9188
  0
LINE
  8
0
 10
-69.8466
 20
-27.9188
 11
-71.005
 21
-29.3714
  0
LINE
  8
0
 10
-71.005
 20
-29.3714
 11
-71.0268
 21
-29.3986
  0
LINE
  8
0
 10
-71.0268
 20
-29.3986
 11
-71.0345
 21
-29.4326
  0
LINE
  8
0
 10
-71.0345
 20
-29.4326
 11
-71.4479
 21
-31.2439
  0
LINE
  8
0
 10
-71.4479
 20
-31.2439
 11
-71.1677
 21
-32.4718
  0
LINE
  8
0
 10
-71.1677
 20
-32.4718
 11
-79.0006
 21
-36.0425
  0
LINE
  8
0
 10
-79.0006
 20
-36.0425
 11
-79.0471
 21
-36.0815
  0
LINE
  8
0
 10
-79.0471
 20
-36.0815
 11
-85.6913
 21
-41.6566
  0
LINE
  8
0
 10
-85.6913
 20
-41.6566
 11
-88.1458
 21
-43.7162
  0
LINE
  8
0
 10
-88.1458
 20
-43.7162
 11
-88.9729
 21
-44.7247
  0
LINE
  8
0
 10
-88.9729
 20
-44.7247
 11
-89.4017
 21
-45.2476
  0
LINE
  8
0
 10
-89.4017
 20
-45.2476
 11
-89.4017
 21
-45.2476
  0
LINE
  8
0
 10
-89.4017
 20
-45.2476
 11
-88.0933
 21
-48.8019
  0
LINE
  8
0
 10
-88.0933
 20
-48.8019
 11
-85.7545
 21
-55.1554
  0
LINE
  8
0
 10
-85.7545
 20
-55.1554
 11
-91.3493
 21
-62.3164
  0
LINE
  8
0
 10
-91.3493
 20
-62.3164
 11
-91.3495
 21
-62.3167
  0
LINE
  8
0
 10
-91.3495
 20
-62.3167
 11
-94.4514
 21
-66.2869
  0
LINE
  8
0
 10
-94.4514
 20
-66.2869
 11
-94.4793
 21
-66.3225
  0
LINE
  8
0
 10
-94.4793
 20
-66.3225
 11
-94.4793
 21
-66.3225
  0
LINE
  8
0
 10
-91.4044
 20
-66.1862
 11
-87.9451
 21
-61.7584
  0
LINE
  8
0
 10
-87.9451
 20
-61.7584
 11
-87.9449
 21
-61.7581
  0
LINE
  8
0
 10
-87.9449
 20
-61.7581
 11
-82.7301
 21
-55.0836
  0
LINE
  8
0
 10
-82.7301
 20
-55.0836
 11
-82.7301
 21
-55.0836
  0
LINE
  8
0
 10
-82.7301
 20
-55.0836
 11
-82.7101
 21
-55.058
  0
LINE
  8
0
 10
-82.7101
 20
-55.058
 11
-82.6797
 21
-55.019
  0
LINE
  8
0
 10
-82.6797
 20
-55.019
 11
-82.6797
 21
-55.019
  0
LINE
  8
0
 10
-82.6797
 20
-55.019
 11
-84.0397
 21
-51.6466
  0
LINE
  8
0
 10
-84.0397
 20
-51.6466
 11
-86.5019
 21
-45.5407
  0
LINE
  8
0
 10
-86.5019
 20
-45.5407
 11
-81.3944
 21
-41.255
  0
LINE
  8
0
 10
-81.3944
 20
-41.255
 11
-81.3942
 21
-41.2549
  0
LINE
  8
0
 10
-81.3942
 20
-41.2549
 11
-78.5025
 21
-38.8285
  0
LINE
  8
0
 10
-78.5025
 20
-38.8285
 11
-70.3861
 21
-33.8926
  0
LINE
  8
0
 10
-70.3861
 20
-33.8926
 11
-69.8466
 21
-34.5691
  0
LINE
  8
0
 10
-69.8466
 20
-34.5691
 11
-68.1727
 21
-35.3752
  0
LINE
  8
0
 10
-68.1727
 20
-35.3752
 11
-68.1413
 21
-35.3903
  0
LINE
  8
0
 10
-68.1413
 20
-35.3903
 11
-66.2485
 21
-35.3903
  0
LINE
  8
0
 10
-66.2485
 20
-35.3903
 11
-66.2171
 21
-35.3752
  0
LINE
  8
0
 10
-66.2171
 20
-35.3752
 11
-64.5432
 21
-34.5691
  0
LINE
  8
0
 10
-64.5432
 20
-34.5691
 11
-63.3848
 21
-33.1165
  0
LINE
  8
0
 10
-63.3848
 20
-33.1165
 11
-63.3631
 21
-33.0892
  0
LINE
  8
0
 10
-63.3631
 20
-33.0892
 11
-63.3553
 21
-33.0553
  0
LINE
  8
0
 10
-63.3553
 20
-33.0553
 11
-62.9419
 21
-31.2439
  0
LINE
  8
0
 10
-62.9419
 20
-31.2439
 11
-63.3553
 21
-29.4326
  0
LINE
  8
0
 10
-63.3553
 20
-29.4326
 11
-63.3631
 21
-29.3986
  0
LINE
  8
0
 10
-63.3631
 20
-29.3986
 11
-63.3848
 21
-29.3714
  0
LINE
  8
0
 10
-63.3848
 20
-29.3714
 11
-64.5432
 21
-27.9188
  0
LINE
  8
0
 10
-64.5432
 20
-27.9188
 11
-65.5226
 21
-27.4471
  0
LINE
  8
0
 10
-65.5226
 20
-27.4471
 11
-64.8315
 21
-27.4471
  0
LINE
  8
0
 10
-64.8315
 20
-27.4471
 11
-64.8315
 21
25.4471
  0
LINE
  8
0
 10
-64.8315
 20
25.4471
 11
-66.7458
 21
25.4471
  0
LINE
  8
0
 10
-66.7458
 20
25.4471
 11
-66.9319
 21
25.6805
  0
LINE
  8
0
 10
-66.9319
 20
25.6805
 11
-65.6599
 21
30.9184
  0
LINE
  8
0
 10
-65.6599
 20
30.9184
 11
-57.6599
 21
38.9184
  0
LINE
  8
0
 10
-57.6599
 20
38.9184
 11
-55.7147
 21
41.1377
  0
LINE
  8
0
 10
-55.7147
 20
41.1377
 11
-55.4443
 21
41.4462
  0
LINE
  8
0
 10
-55.4443
 20
41.4462
 11
-48.9306
 21
41.4462
  0
LINE
  8
0
 10
-48.9306
 20
41.4462
 11
-48.1385
 21
41.4462
  0
LINE
  8
0
 10
-48.1385
 20
41.4462
 11
-46.3819
 21
41.4462
  0
LINE
  8
0
 10
-46.3819
 20
41.4462
 11
-46.1192
 21
41.4462
  0
LINE
  8
0
 10
-46.1192
 20
41.4462
 11
-38.6574
 21
41.4462
  0
LINE
  8
0
 10
-38.6574
 20
41.4462
 11
-37.4716
 21
41.4462
  0
LINE
  8
0
 10
-37.4716
 20
41.4462
 11
-37.463
 21
41.4462
  0
LINE
  8
0
 10
-37.463
 20
41.4462
 11
-37.3859
 21
41.7783
  0
LINE
  8
0
 10
-37.3859
 20
41.7783
 11
-37.0147
 21
43.3781
  0
LINE
  8
0
 10
-37.0147
 20
43.3781
 11
-37.0108
 21
43.3947
  0
LINE
  8
0
 10
-37.0108
 20
43.3947
 11
-36.9923
 21
43.4747
  0
LINE
  8
0
 10
-36.9923
 20
43.4747
 11
-37.233
 21
44.2662
  0
LINE
  8
0
 10
-37.233
 20
44.2662
 11
-30.3216
 21
44.2662
  0
LINE
  8
0
 10
-30.3216
 20
44.2662
 11
-29.2665
 21
44.2662
  0
LINE
  8
0
 10
-29.2665
 20
44.2662
 11
-26.8898
 21
43.1522
  0
LINE
  8
0
 10
-26.8898
 20
43.1522
 11
-25.183
 21
42.3521
  0
LINE
  8
0
 10
-25.183
 20
42.3521
 11
-24.052
 21
41.9565
  0
LINE
  8
0
 10
-24.052
 20
41.9565
 11
-23.7805
 21
40.7668
  0
LINE
  8
0
 10
-23.7805
 20
40.7668
 11
-23.7727
 21
40.7328
  0
LINE
  8
0
 10
-23.7727
 20
40.7328
 11
-23.751
 21
40.7056
  0
LINE
  8
0
 10
-23.751
 20
40.7056
 11
-22.5926
 21
39.253
  0
LINE
  8
0
 10
-22.5926
 20
39.253
 11
-20.9187
 21
38.4468
  0
LINE
  8
0
 10
-20.9187
 20
38.4468
 11
-20.8873
 21
38.4317
  0
LINE
  8
0
 10
-20.8873
 20
38.4317
 11
-18.9945
 21
38.4317
  0
LINE
  8
0
 10
-18.9945
 20
38.4317
 11
-18.9631
 21
38.4468
  0
LINE
  8
0
 10
-18.9631
 20
38.4468
 11
-17.2892
 21
39.253
  0
LINE
  8
0
 10
-17.2892
 20
39.253
 11
-16.1308
 21
40.7056
  0
LINE
  8
0
 10
-16.1308
 20
40.7056
 11
-16.109
 21
40.7328
  0
LINE
  8
0
 10
-16.109
 20
40.7328
 11
-16.1013
 21
40.7668
  0
LINE
  8
0
 10
-16.1013
 20
40.7668
 11
-15.9462
 21
41.4462
  0
LINE
  8
0
 10
-15.9462
 20
41.4462
 11
-14.4409
 21
41.4462
  0
LINE
  8
0
 10
-14.4409
 20
41.4462
 11
-13.5242
 21
41.4462
  0
LINE
  8
0
 10
-13.5242
 20
41.4462
 11
-10.23
 21
35.905
  0
LINE
  8
0
 10
-10.23
 20
35.905
 11
-10.2298
 21
35.9047
  0
LINE
  8
0
 10
-10.2298
 20
35.9047
 11
-6.9288
 21
30.3521
  0
LINE
  8
0
 10
-6.9288
 20
30.3521
 11
-5.95393
 21
29.9827
  0
LINE
  8
0
 10
-5.95393
 20
29.9827
 11
-4.53826
 21
29.4462
  0
LINE
  8
0
 10
-4.53826
 20
29.4462
 11
2.74793
 21
29.4462
  0
LINE
  8
0
 10
2.74793
 20
29.4462
 11
5.89667
 21
29.4462
  0
LINE
  8
0
 10
5.89667
 20
29.4462
 11
11.5395
 21
20.8964
  0
LINE
  8
0
 10
11.5395
 20
20.8964
 11
11.5395
 21
20.8964
  0
LINE
  8
0
 10
11.5395
 20
20.8964
 11
10.503
 21
12.8519
  0
LINE
  8
0
 10
10.503
 20
12.8519
 11
9.29293
 21
3.45986
  0
LINE
  8
0
 10
9.29293
 20
3.45986
 11
9.29153
 21
3.44895
  0
LINE
  8
0
 10
9.29153
 20
3.44895
 11
9.28689
 21
3.41295
  0
LINE
  8
0
 10
9.28689
 20
3.41295
 11
9.05204
 21
-0.213479
  0
LINE
  8
0
 10
9.05204
 20
-0.213479
 11
8.85216
 21
-3.3
  0
LINE
  8
0
 10
8.85216
 20
-3.3
 11
8.85216
 21
-9.94171
  0
LINE
  8
0
 10
8.85216
 20
-9.94171
 11
7.84188
 21
-8.67486
  0
LINE
  8
0
 10
7.84188
 20
-8.67486
 11
6.16795
 21
-7.86873
  0
LINE
  8
0
 10
6.16795
 20
-7.86873
 11
6.13655
 21
-7.85361
  0
LINE
  8
0
 10
6.13655
 20
-7.85361
 11
4.24378
 21
-7.85361
  0
LINE
  8
0
 10
4.24378
 20
-7.85361
 11
4.21238
 21
-7.86873
  0
LINE
  8
0
 10
4.21238
 20
-7.86873
 11
2.53845
 21
-8.67486
  0
LINE
  8
0
 10
2.53845
 20
-8.67486
 11
1.38005
 21
-10.1274
  0
LINE
  8
0
 10
1.38005
 20
-10.1274
 11
1.35833
 21
-10.1547
  0
LINE
  8
0
 10
1.35833
 20
-10.1547
 11
1.35057
 21
-10.1887
  0
LINE
  8
0
 10
1.35057
 20
-10.1887
 11
0.937146
 21
-12
  0
LINE
  8
0
 10
0.937146
 20
-12
 11
1.35057
 21
-13.8113
  0
LINE
  8
0
 10
1.35057
 20
-13.8113
 11
1.35833
 21
-13.8453
  0
LINE
  8
0
 10
1.35833
 20
-13.8453
 11
1.38005
 21
-13.8726
  0
LINE
  8
0
 10
1.38005
 20
-13.8726
 11
2.53845
 21
-15.3251
  0
LINE
  8
0
 10
2.53845
 20
-15.3251
 11
4.21238
 21
-16.1313
  0
LINE
  8
0
 10
4.21238
 20
-16.1313
 11
4.24378
 21
-16.1464
  0
LINE
  8
0
 10
4.24378
 20
-16.1464
 11
6.13655
 21
-16.1464
  0
LINE
  8
0
 10
6.13655
 20
-16.1464
 11
6.16795
 21
-16.1313
  0
LINE
  8
0
 10
6.16795
 20
-16.1313
 11
7.84188
 21
-15.3251
  0
LINE
  8
0
 10
7.84188
 20
-15.3251
 11
8.85216
 21
-14.0583
  0
LINE
  8
0
 10
8.85216
 20
-14.0583
 11
8.85216
 21
-20.7
  0
LINE
  8
0
 10
8.85216
 20
-20.7
 11
9.05204
 21
-23.7865
  0
LINE
  8
0
 10
9.05204
 20
-23.7865
 11
9.28689
 21
-27.413
  0
LINE
  8
0
 10
9.28689
 20
-27.413
 11
9.29153
 21
-27.4489
  0
LINE
  8
0
 10
9.29153
 20
-27.4489
 11
9.29293
 21
-27.4599
  0
LINE
  8
0
 10
9.29293
 20
-27.4599
 11
10.503
 21
-36.8519
  0
LINE
  8
0
 10
10.503
 20
-36.8519
 11
11.5395
 21
-44.8964
  0
LINE
  8
0
 10
11.5395
 20
-44.8964
 11
11.5395
 21
-44.8964
  0
LINE
  8
0
 10
11.5395
 20
-44.8964
 11
5.89667
 21
-53.4462
  0
LINE
  8
0
 10
5.89667
 20
-53.4462
 11
2.74793
 21
-53.4462
  0
LINE
  8
0
 10
2.74793
 20
-53.4462
 11
-4.53826
 21
-53.4462
  0
LINE
  8
0
 10
-4.53826
 20
-53.4462
 11
-5.95393
 21
-53.9827
  0
LINE
  8
0
 10
-5.95393
 20
-53.9827
 11
-6.9288
 21
-54.3521
  0
LINE
  8
0
 10
-6.9288
 20
-54.3521
 11
-6.9288
 21
-54.3521
  0
LINE
  8
0
 10
-6.9288
 20
-54.3521
 11
-6.92055
 21
-54.3957
  0
LINE
  8
0
 10
-6.92055
 20
-54.3957
 11
-6.75825
 21
-55.2523
  0
LINE
  8
0
 10
-6.75825
 20
-55.2523
 11
-6.55465
 21
-56.3268
  0
LINE
  8
0
 10
-6.55465
 20
-56.3268
 11
-6.54447
 21
-56.3805
  0
LINE
  8
0
 10
-6.54447
 20
-56.3805
 11
-1.15453
 21
-56.3805
  0
LINE
  8
0
 10
-1.15453
 20
-56.3805
 11
-1.02296
 21
-58.6535
  0
LINE
  8
0
 10
-1.02296
 20
-58.6535
 11
-0.744276
 21
-63.468
  0
LINE
  8
0
 10
-0.744276
 20
-63.468
 11
-1.25917
 21
-63.468
  0
LINE
  8
0
 10
-1.25917
 20
-63.468
 11
-1.26826
 21
-63.468
  0
LINE
  8
0
 10
-1.26826
 20
-63.468
 11
-12.0124
 21
-63.468
  0
LINE
  8
0
 10
-12.0124
 20
-63.468
 11
-12.0124
 21
-63.468
  0
LINE
  8
0
 10
-12.0124
 20
-63.468
 11
-16.4556
 21
-66.3906
  0
LINE
  8
0
 10
-16.4556
 20
-66.3906
 11
-16.4557
 21
-66.3907
  0
LINE
  8
0
 10
-16.4557
 20
-66.3907
 11
-16.8558
 21
-66.6538
  0
LINE
  8
0
 10
-16.8558
 20
-66.6538
 11
-17.0042
 21
-66.4677
  0
LINE
  8
0
 10
-17.0042
 20
-66.4677
 11
-18.6781
 21
-65.6616
  0
LINE
  8
0
 10
-18.6781
 20
-65.6616
 11
-18.7095
 21
-65.6465
  0
LINE
  8
0
 10
-18.7095
 20
-65.6465
 11
-20.6023
 21
-65.6465
  0
LINE
  8
0
 10
-20.6023
 20
-65.6465
 11
-20.6337
 21
-65.6616
  0
LINE
  8
0
 10
-20.6337
 20
-65.6616
 11
-22.3076
 21
-66.4677
  0
LINE
  8
0
 10
-22.3076
 20
-66.4677
 11
-23.466
 21
-67.9203
  0
LINE
  8
0
 10
-23.466
 20
-67.9203
 11
-23.4877
 21
-67.9476
  0
LINE
  8
0
 10
-23.4877
 20
-67.9476
 11
-23.4955
 21
-67.9815
  0
LINE
  8
0
 10
-23.4955
 20
-67.9815
 11
-23.9089
 21
-69.7929
  0
LINE
  8
0
 10
-23.9089
 20
-69.7929
 11
-23.6059
 21
-71.1205
  0
LINE
  8
0
 10
-23.6059
 20
-71.1205
 11
-30.0643
 21
-75.3977
  0
LINE
  8
0
 10
-30.0643
 20
-75.3977
 11
-31.2216
 21
-76.2811
  0
LINE
  8
0
 10
-31.2216
 20
-76.2811
 11
-31.6386
 21
-76.5994
  0
LINE
  8
0
 10
-31.6386
 20
-76.5994
 11
-31.6804
 21
-76.6459
  0
LINE
  8
0
 10
-31.6804
 20
-76.6459
 11
-31.6941
 21
-76.661
  0
LINE
  8
0
 10
-31.6941
 20
-76.661
 11
-34.7924
 21
-80.102
  0
LINE
  8
0
 10
-34.7924
 20
-80.102
 11
-41.2534
 21
-87.2778
  0
LINE
  8
0
 10
-41.2534
 20
-87.2778
 11
-41.2534
 21
-87.2778
  0
LINE
  8
0
 10
-41.2534
 20
-87.2778
 11
-41.291
 21
-87.3195
  0
LINE
  8
0
 10
-41.291
 20
-87.3195
 11
-40.6267
 21
-90.4562
  0
LINE
  8
0
 10
-40.6267
 20
-90.4562
 11
-40.31
 21
-91.9518
  0
LINE
  8
0
 10
-40.31
 20
-91.9518
 11
-46.0714
 21
-99.8817
  0
LINE
  8
0
 10
-46.0714
 20
-99.8817
 11
-46.0716
 21
-99.8819
  0
LINE
  8
0
 10
-46.0716
 20
-99.8819
 11
-48.118
 21
-102.699
  0
LINE
  8
0
 10
-48.118
 20
-102.699
 11
-51.3471
 21
-102.677
  0
LINE
  8
0
 10
-51.3471
 20
-102.677
 11
-56.3905
 21
-102.643
  0
LINE
  8
0
 10
-56.3905
 20
-102.643
 11
-56.3905
 21
-102.643
  0
LINE
  8
0
 10
-56.3905
 20
-102.643
 11
-58.8218
 21
-100.222
  0
LINE
  8
0
 10
-58.8218
 20
-100.222
 11
-64.2519
 21
-94.8153
  0
LINE
  8
0
 10
-64.2519
 20
-94.8153
 11
-67.7864
 21
-91.4621
  0
LINE
  8
0
 10
-67.7864
 20
-91.4621
 11
-68.6445
 21
-90.6481
  0
LINE
  8
0
 10
-68.6445
 20
-90.6481
 11
-68.6507
 21
-90.6422
  0
LINE
  8
0
 10
-68.6507
 20
-90.6422
 11
-71.27
 21
-89.5963
  0
LINE
  8
0
 10
-71.27
 20
-89.5963
 11
-74.7789
 21
-88.205
  0
LINE
  8
0
 10
-74.7789
 20
-88.205
 11
-76.2503
 21
-87.6216
  0
LINE
  8
0
 10
-76.2503
 20
-87.6216
 11
-87.9009
 21
-77.7423
  0
LINE
  8
0
 10
-87.9009
 20
-77.7423
 11
-89.3473
 21
-76.5157
  0
LINE
  8
0
 10
-89.3473
 20
-76.5157
 11
-89.5847
 21
-75.3241
  0
LINE
  8
0
 10
-89.5847
 20
-75.3241
 11
-91.4044
 21
-66.1862
  0
LINE
  8
0
 10
-71.4507
 20
22.5649
 11
-70.6007
 21
24.0371
  0
LINE
  8
0
 10
-70.6007
 20
24.0371
 11
-68.9007
 21
24.0371
  0
LINE
  8
0
 10
-68.9007
 20
24.0371
 11
-68.0507
 21
22.5649
  0
LINE
  8
0
 10
-68.0507
 20
22.5649
 11
-68.9007
 21
21.0926
  0
LINE
  8
0
 10
-68.9007
 20
21.0926
 11
-70.6007
 21
21.0926
  0
LINE
  8
0
 10
-70.6007
 20
21.0926
 11
-71.4507
 21
22.5649
  0
LINE
  8
0
 10
-68.8949
 20
-31.2439
 11
-68.0449
 21
-29.7717
  0
LINE
  8
0
 10
-68.0449
 20
-29.7717
 11
-66.3449
 21
-29.7717
  0
LINE
  8
0
 10
-66.3449
 20
-29.7717
 11
-65.4949
 21
-31.2439
  0
LINE
  8
0
 10
-65.4949
 20
-31.2439
 11
-66.3449
 21
-32.7162
  0
LINE
  8
0
 10
-66.3449
 20
-32.7162
 11
-68.0449
 21
-32.7162
  0
LINE
  8
0
 10
-68.0449
 20
-32.7162
 11
-68.8949
 21
-31.2439
  0
LINE
  8
0
 10
-21.6409
 20
42.5781
 11
-20.7909
 21
44.0504
  0
LINE
  8
0
 10
-20.7909
 20
44.0504
 11
-19.0909
 21
44.0504
  0
LINE
  8
0
 10
-19.0909
 20
44.0504
 11
-18.2409
 21
42.5781
  0
LINE
  8
0
 10
-18.2409
 20
42.5781
 11
-19.0909
 21
41.1059
  0
LINE
  8
0
 10
-19.0909
 20
41.1059
 11
-20.7909
 21
41.1059
  0
LINE
  8
0
 10
-20.7909
 20
41.1059
 11
-21.6409
 21
42.5781
  0
LINE
  8
0
 10
-21.3559
 20
-69.7929
 11
-20.5059
 21
-68.3206
  0
LINE
  8
0
 10
-20.5059
 20
-68.3206
 11
-18.8059
 21
-68.3206
  0
LINE
  8
0
 10
-18.8059
 20
-68.3206
 11
-17.9559
 21
-69.7929
  0
LINE
  8
0
 10
-17.9559
 20
-69.7929
 11
-18.8059
 21
-71.2651
  0
LINE
  8
0
 10
-18.8059
 20
-71.2651
 11
-20.5059
 21
-71.2651
  0
LINE
  8
0
 10
-20.5059
 20
-71.2651
 11
-21.3559
 21
-69.7929
  0
LINE
  8
0
 10
3.49016
 20
-12
 11
4.34016
 21
-10.5278
  0
LINE
  8
0
 10
4.34016
 20
-10.5278
 11
6.04016
 21
-10.5278
  0
LINE
  8
0
 10
6.04016
 20
-10.5278
 11
6.89016
 21
-12
  0
LINE
  8
0
 10
6.89016
 20
-12
 11
6.04016
 21
-13.4722
  0
LINE
  8
0
 10
6.04016
 20
-13.4722
 11
4.34016
 21
-13.4722
  0
LINE
  8
0
 10
4.34016
 20
-13.4722
 11
3.49016
 21
-12
  0
ENDSEC
  0
SECTION
  2
OBJECTS
  0
DICTIONARY
  0
ENDSEC
  0
EOF
